<?xml version="1.0" encoding="UTF-8" standalone="no"?>
<svg width="16" height="16" viewBox="0 0 32 32" xmlns="http://www.w3.org/2000/svg">
  <g style="fill: #ffffff">
    <path d="M25,5V2H23V5H19V2H17V5H13V2H11V5H7V2H5V5H1V29H29V5ZM5,7V9H7V7h4V9h2V7h4V9h2V7h4V9h2V7h2v4H3V7ZM3,27V13H27V27Z"/>
    <rect class="cls-1" height="2" width="2" x="11" y="17"/>
    <rect class="cls-1" height="2" width="2" x="15" y="17"/>
    <rect class="cls-1" height="2" width="2" x="19" y="17"/>
    <rect class="cls-1" height="2" width="2" x="7" y="21"/>
    <rect class="cls-1" height="2" width="2" x="11" y="21"/>
    <rect class="cls-1" height="2" width="2" x="15" y="21"/>
  </g>
</svg>